HIERARCHY
ROOT Hips
{
	OFFSET 0.000000 98.037537 0.000000
	CHANNELS 6 Xposition Yposition Zposition Xrotation Yrotation Zrotation 
	JOINT Spine
	{
		OFFSET 0.000000 10.236603 -0.985400
		CHANNELS 3 Xrotation Yrotation Zrotation
		JOINT Spine1
		{
			OFFSET 0.000000 8.530502 -0.821154
			CHANNELS 3 Xrotation Yrotation Zrotation
			JOINT Spine1_split
			{
				OFFSET 0.000000 8.530502 -0.821154
				CHANNELS 3 Xrotation Yrotation Zrotation
				JOINT Spine2
				{
					OFFSET 0.000000 8.530502 -0.821154
					CHANNELS 3 Xrotation Yrotation Zrotation
					JOINT Neck
					{
						OFFSET 0.000000 15.354919 -1.478078
						CHANNELS 3 Xrotation Yrotation Zrotation
						JOINT Head
						{
							OFFSET 0.000000 3.779800 1.345900
							CHANNELS 3 Xrotation Yrotation Zrotation
							JOINT HeadTop_End
							{
								OFFSET 0.000000 25.046295 8.918200
								CHANNELS 3 Xrotation Yrotation Zrotation
								End Site
								{
									OFFSET 0.000000 0.000000 0.000000
								}
							}
						}
					}
					JOINT LeftShoulder
					{
						OFFSET 3.095650 6.783836 -0.741274
						CHANNELS 3 Xrotation Yrotation Zrotation
						JOINT LeftShoulder_split
						{
							OFFSET 3.095650 6.783836 -0.741274
							CHANNELS 3 Xrotation Yrotation Zrotation
							JOINT LeftArm
							{
								OFFSET 12.653139 -3.421951 -0.008858
								CHANNELS 3 Xrotation Yrotation Zrotation
								JOINT LeftForeArm
								{
									OFFSET 27.071707 0.000000 -0.000001
									CHANNELS 3 Xrotation Yrotation Zrotation
									JOINT LeftHand
									{
										OFFSET 25.567696 0.000000 -0.000001
										CHANNELS 3 Xrotation Yrotation Zrotation
										JOINT LeftHandThumb1
										{
											OFFSET 3.060722 -1.462875 2.317776
											CHANNELS 3 Xrotation Yrotation Zrotation
											JOINT LeftHandThumb2
											{
												OFFSET 2.545944 -1.469894 1.469902
												CHANNELS 3 Xrotation Yrotation Zrotation
												JOINT LeftHandThumb3
												{
													OFFSET 2.680428 -1.547546 1.547546
													CHANNELS 3 Xrotation Yrotation Zrotation
													JOINT LeftHandThumb4
													{
														OFFSET 2.195984 -1.267853 1.267851
														CHANNELS 3 Xrotation Yrotation Zrotation
														End Site
														{
															OFFSET 0.000000 0.000000 0.000000
														}
													}
												}
											}
										}
										JOINT LeftHandIndex1
										{
											OFFSET 9.800262 -0.300766 2.394910
											CHANNELS 3 Xrotation Yrotation Zrotation
											JOINT LeftHandIndex2
											{
												OFFSET 3.112297 0.000000 -0.000000
												CHANNELS 3 Xrotation Yrotation Zrotation
												JOINT LeftHandIndex3
												{
													OFFSET 2.927002 0.000000 -0.000000
													CHANNELS 3 Xrotation Yrotation Zrotation
													JOINT LeftHandIndex4
													{
														OFFSET 2.493301 0.000000 0.000000
														CHANNELS 3 Xrotation Yrotation Zrotation
														End Site
														{
															OFFSET 0.000000 0.000000 0.000000
														}
													}
												}
											}
										}
										JOINT LeftHandMiddle1
										{
											OFFSET 10.096680 0.000000 -0.000000
											CHANNELS 3 Xrotation Yrotation Zrotation
											JOINT LeftHandMiddle2
											{
												OFFSET 3.179199 0.000000 0.000000
												CHANNELS 3 Xrotation Yrotation Zrotation
												JOINT LeftHandMiddle3
												{
													OFFSET 3.130302 0.000000 0.000000
													CHANNELS 3 Xrotation Yrotation Zrotation
													JOINT LeftHandMiddle4
													{
														OFFSET 2.641899 0.000000 0.000000
														CHANNELS 3 Xrotation Yrotation Zrotation
														End Site
														{
															OFFSET 0.000000 0.000000 0.000000
														}
													}
												}
											}
										}
										JOINT LeftHandRing1
										{
											OFFSET 9.987442 -0.147278 -2.303933
											CHANNELS 3 Xrotation Yrotation Zrotation
											JOINT LeftHandRing2
											{
												OFFSET 2.756905 0.000000 0.000000
												CHANNELS 3 Xrotation Yrotation Zrotation
												JOINT LeftHandRing3
												{
													OFFSET 2.708405 0.000000 0.000000
													CHANNELS 3 Xrotation Yrotation Zrotation
													JOINT LeftHandRing4
													{
														OFFSET 2.101418 0.000000 0.000000
														CHANNELS 3 Xrotation Yrotation Zrotation
														End Site
														{
															OFFSET 0.000000 0.000000 0.000000
														}
													}
												}
											}
										}
										JOINT LeftHandPinky1
										{
											OFFSET 8.892174 -0.241959 -4.491873
											CHANNELS 3 Xrotation Yrotation Zrotation
											JOINT LeftHandPinky2
											{
												OFFSET 2.615402 0.000000 0.000000
												CHANNELS 3 Xrotation Yrotation Zrotation
												JOINT LeftHandPinky3
												{
													OFFSET 2.179611 0.000000 0.000000
													CHANNELS 3 Xrotation Yrotation Zrotation
													JOINT LeftHandPinky4
													{
														OFFSET 1.785103 0.000000 0.000000
														CHANNELS 3 Xrotation Yrotation Zrotation
														End Site
														{
															OFFSET 0.000000 0.000000 0.000000
														}
													}
												}
											}
										}
									}
								}
							}
						}
					}
					JOINT RightShoulder
					{
						OFFSET -3.095650 6.783813 -0.736801
						CHANNELS 3 Xrotation Yrotation Zrotation
						JOINT RightShoulder_split
						{
							OFFSET -3.095650 6.783813 -0.736801
							CHANNELS 3 Xrotation Yrotation Zrotation
							JOINT RightArm
							{
								OFFSET -12.653151 -3.421906 0.008869
								CHANNELS 3 Xrotation Yrotation Zrotation
								JOINT RightForeArm
								{
									OFFSET -27.069597 0.000000 0.000001
									CHANNELS 3 Xrotation Yrotation Zrotation
									JOINT RightHand
									{
										OFFSET -25.565407 0.000000 0.000001
										CHANNELS 3 Xrotation Yrotation Zrotation
										JOINT RightHandThumb1
										{
											OFFSET -3.209328 -1.689423 2.514706
											CHANNELS 3 Xrotation Yrotation Zrotation
											JOINT RightHandThumb2
											{
												OFFSET -2.734825 -1.578949 1.578951
												CHANNELS 3 Xrotation Yrotation Zrotation
												JOINT RightHandThumb3
												{
													OFFSET -2.487328 -1.436066 1.436060
													CHANNELS 3 Xrotation Yrotation Zrotation
													JOINT RightHandThumb4
													{
														OFFSET -1.930344 -1.114487 1.114487
														CHANNELS 3 Xrotation Yrotation Zrotation
														End Site
														{
															OFFSET 0.000000 0.000000 0.000000
														}
													}
												}
											}
										}
										JOINT RightHandIndex1
										{
											OFFSET -9.905579 -0.263855 2.371006
											CHANNELS 3 Xrotation Yrotation Zrotation
											JOINT RightHandIndex2
											{
												OFFSET -3.114998 0.000000 0.000000
												CHANNELS 3 Xrotation Yrotation Zrotation
												JOINT RightHandIndex3
												{
													OFFSET -2.926697 0.000000 0.000000
													CHANNELS 3 Xrotation Yrotation Zrotation
													JOINT RightHandIndex4
													{
														OFFSET -2.405304 0.000000 0.000000
														CHANNELS 3 Xrotation Yrotation Zrotation
														End Site
														{
															OFFSET 0.000000 0.000000 0.000000
														}
													}
												}
											}
										}
										JOINT RightHandMiddle1
										{
											OFFSET -10.116516 0.000000 0.000000
											CHANNELS 3 Xrotation Yrotation Zrotation
											JOINT RightHandMiddle2
											{
												OFFSET -3.238800 0.000000 0.000000
												CHANNELS 3 Xrotation Yrotation Zrotation
												JOINT RightHandMiddle3
												{
													OFFSET -3.089897 0.000000 0.000000
													CHANNELS 3 Xrotation Yrotation Zrotation
													JOINT RightHandMiddle4
													{
														OFFSET -2.640900 0.000000 0.000000
														CHANNELS 3 Xrotation Yrotation Zrotation
														End Site
														{
															OFFSET 0.000000 0.000000 0.000000
														}
													}
												}
											}
										}
										JOINT RightHandRing1
										{
											OFFSET -10.100227 -0.043533 -2.288989
											CHANNELS 3 Xrotation Yrotation Zrotation
											JOINT RightHandRing2
											{
												OFFSET -2.832199 0.000000 0.000000
												CHANNELS 3 Xrotation Yrotation Zrotation
												JOINT RightHandRing3
												{
													OFFSET -2.645599 0.000000 0.000000
													CHANNELS 3 Xrotation Yrotation Zrotation
													JOINT RightHandRing4
													{
														OFFSET -2.186401 0.000000 0.000000
														CHANNELS 3 Xrotation Yrotation Zrotation
														End Site
														{
															OFFSET 0.000000 0.000000 0.000000
														}
													}
												}
											}
										}
										JOINT RightHandPinky1
										{
											OFFSET -8.769279 -0.239441 -4.443583
											CHANNELS 3 Xrotation Yrotation Zrotation
											JOINT RightHandPinky2
											{
												OFFSET -2.635300 0.000000 0.000000
												CHANNELS 3 Xrotation Yrotation Zrotation
												JOINT RightHandPinky3
												{
													OFFSET -2.200104 0.000000 0.000000
													CHANNELS 3 Xrotation Yrotation Zrotation
													JOINT RightHandPinky4
													{
														OFFSET -1.875404 0.000000 0.000000
														CHANNELS 3 Xrotation Yrotation Zrotation
														End Site
														{
															OFFSET 0.000000 0.000000 0.000000
														}
													}
												}
											}
										}
									}
								}
							}
						}
					}
				}
			}
		}
	}
	JOINT LeftUpLeg
	{
		OFFSET 9.149300 -5.691597 -0.209800
		CHANNELS 3 Xrotation Yrotation Zrotation
		JOINT LeftLeg
		{
			OFFSET 0.367366 -40.775387 -3.165122
			CHANNELS 3 Xrotation Yrotation Zrotation
			JOINT LeftFoot
			{
				OFFSET -0.367361 -38.890987 -2.495499
				CHANNELS 3 Xrotation Yrotation Zrotation
				JOINT LeftToeBase
				{
					OFFSET 3.266852 -11.730358 15.127188
					CHANNELS 3 Xrotation Yrotation Zrotation
					JOINT LeftToe_End
					{
						OFFSET 1.671803 -0.049743 6.701437
						CHANNELS 3 Xrotation Yrotation Zrotation
						End Site
						{
							OFFSET 0.000000 0.000000 0.000000
						}
					}
				}
			}
		}
	}
	JOINT RightUpLeg
	{
		OFFSET -9.149300 -5.691597 -0.455500
		CHANNELS 3 Xrotation Yrotation Zrotation
		JOINT RightLeg
		{
			OFFSET -0.367382 -40.775345 -2.947703
			CHANNELS 3 Xrotation Yrotation Zrotation
			JOINT RightFoot
			{
				OFFSET 0.367374 -38.890850 -2.831249
				CHANNELS 3 Xrotation Yrotation Zrotation
				JOINT RightToeBase
				{
					OFFSET -3.266890 -11.731076 15.306957
					CHANNELS 3 Xrotation Yrotation Zrotation
					JOINT RightToe_End
					{
						OFFSET -1.671815 -0.050072 7.010748
						CHANNELS 3 Xrotation Yrotation Zrotation
						End Site
						{
							OFFSET 0.000000 0.000000 0.000000
						}
					}
				}
			}
		}
	}
}
MOTION
Frames: 4
Frame Time: 0.016667
-0.196747 90.552101 0.128806 -3.715866 -71.340144 -4.906187 13.316183 -1.578223 -0.433025 6.600905 -0.950146 -0.101229 0.000000 0.000000 0.000000 6.602104 -0.947025 -0.072360 -0.621168 1.066736 -0.204173 -0.622122 1.064018 -0.215824 0.000002 0.000000 -0.000000 0.659445 -7.940488 -7.565703 0.000000 0.000000 0.000000 -17.699559 -75.759236 -49.651142 -0.000010 -47.912718 -0.000009 -21.822866 -10.854691 31.221826 12.918557 -14.352092 3.766691 -7.464464 38.549799 4.014260 2.520111 25.042643 25.644435 -0.000001 0.000008 -0.000002 -0.003124 3.517060 -25.047023 5.392011 5.833088 -85.492317 1.138933 3.472508 -36.309098 0.000001 0.000001 -0.000001 1.040746 5.695725 -26.426400 4.731321 5.743276 -78.948080 1.665163 4.091849 -44.273788 -0.000001 -0.000000 -0.000000 0.502453 4.733756 -31.731799 5.174292 5.811922 -83.346524 1.678788 4.105727 -44.464105 0.000003 0.000000 0.000000 -0.296966 3.719418 -35.394163 4.771112 5.750895 -79.345905 0.921024 3.155036 -32.540210 0.000002 0.000001 -0.000001 0.591320 10.642585 9.522909 0.000000 0.000000 0.000000 -19.745443 14.107951 48.873466 -0.000037 86.735910 0.000028 -37.038907 6.691065 -3.707051 11.465480 24.105578 10.468456 -4.963180 -36.723762 -15.281973 3.615034 -37.001877 -26.660469 -0.000003 -0.000004 -0.000002 -4.243242 -1.792205 55.650162 2.182811 -3.946727 57.878320 1.337697 -3.268358 44.507674 0.000000 -0.000000 -0.000001 -0.401988 -4.272627 53.100951 2.281449 -4.006779 59.300488 1.784729 -3.667356 51.887871 0.000000 0.000000 0.000001 1.038819 -5.285609 50.092925 2.441031 -4.097117 61.558425 1.928835 -3.775717 54.107720 -0.000000 -0.000000 -0.000000 3.552087 -7.249816 52.615594 1.453441 -3.381908 46.503408 1.796628 -3.676646 52.073512 -0.000000 -0.000001 -0.000000 -32.903084 18.017766 30.632015 38.651064 2.976249 0.360205 -4.610664 1.350537 -15.287360 -0.465641 0.000005 0.000007 0.000000 -0.000001 -0.000000 -30.003672 -9.753998 -19.861316 36.811390 8.786664 -5.517956 -11.364572 1.980810 20.764533 -0.418405 0.000031 0.000002 -0.000000 0.000001 -0.000000 
-0.214249 90.602097 0.151834 -3.430474 -71.345656 -4.636960 13.173144 -1.588909 -0.397770 6.536191 -0.951462 -0.089936 0.000000 0.000000 0.000000 6.537189 -0.949788 -0.062340 -0.622321 1.073706 -0.198124 -0.623420 1.070982 -0.209762 -0.000001 -0.000000 -0.000000 0.665205 -7.838923 -7.378618 0.000000 0.000000 0.000000 -18.236026 -75.875561 -50.261955 -0.000027 -47.922670 -0.000017 -21.965912 -10.837448 31.293010 12.918545 -14.352094 3.766689 -7.464453 38.549799 4.014270 2.520114 25.042648 25.644439 0.000002 0.000002 -0.000000 -0.003130 3.517060 -25.047021 5.392007 5.833090 -85.492317 1.138935 3.472506 -36.309105 -0.000001 -0.000000 -0.000001 1.040741 5.695727 -26.426400 4.731318 5.743277 -78.948080 1.665163 4.091847 -44.273788 0.000002 -0.000000 0.000002 0.502450 4.733757 -31.731795 5.174291 5.811926 -83.346531 1.678784 4.105725 -44.464105 -0.000001 0.000000 -0.000000 -0.296971 3.719419 -35.394167 4.771112 5.750897 -79.345905 0.921026 3.155033 -32.540210 -0.000000 0.000000 0.000001 0.600102 10.585399 9.388382 0.000000 0.000000 0.000000 -19.649870 14.198543 48.871417 0.000152 86.780101 -0.000108 -37.165621 6.640902 -3.777175 11.465483 24.105583 10.468464 -4.963179 -36.723762 -15.281976 3.615029 -37.001877 -26.660465 0.000001 -0.000003 -0.000000 -4.243241 -1.792205 55.650162 2.182811 -3.946727 57.878320 1.337696 -3.268358 44.507671 -0.000000 0.000000 0.000001 -0.401987 -4.272627 53.100954 2.281452 -4.006779 59.300488 1.784728 -3.667355 51.887868 -0.000000 0.000000 -0.000000 1.038820 -5.285609 50.092925 2.441031 -4.097117 61.558425 1.928835 -3.775717 54.107720 0.000000 0.000000 -0.000004 3.552087 -7.249816 52.615594 1.453442 -3.381908 46.503411 1.796627 -3.676646 52.073512 0.000000 0.000000 -0.000000 -32.834126 17.980137 30.541864 38.464934 3.097317 0.331741 -4.534730 1.339217 -15.292544 -0.464384 0.000007 -0.000011 -0.000000 0.000003 -0.000000 -29.942429 -9.732483 -19.819536 36.569598 8.776518 -5.506195 -11.251133 1.917437 20.797182 -0.422978 0.000012 0.000011 0.000000 0.000000 0.000000 
-0.232165 90.651817 0.174644 -3.145110 -71.351025 -4.367954 13.029432 -1.609562 -0.355709 6.471407 -0.957141 -0.076172 0.000000 0.000000 0.000000 6.472167 -0.957050 -0.049942 -0.620820 1.079434 -0.191261 -0.622111 1.076676 -0.202850 -0.000001 0.000002 -0.000001 0.670294 -7.730190 -7.198931 0.000000 0.000000 0.000000 -18.645628 -76.002220 -50.732562 0.000012 -47.951633 0.000004 -22.145719 -10.825220 31.385436 12.918552 -14.352096 3.766692 -7.464455 38.549796 4.014264 2.520112 25.042646 25.644434 0.000001 0.000004 -0.000002 -0.003131 3.517059 -25.047023 5.392007 5.833092 -85.492324 1.138935 3.472505 -36.309101 0.000000 0.000000 -0.000002 1.040744 5.695727 -26.426395 4.731316 5.743274 -78.948080 1.665166 4.091847 -44.273792 0.000000 0.000001 -0.000002 0.502449 4.733758 -31.731792 5.174293 5.811920 -83.346531 1.678788 4.105725 -44.464101 0.000001 -0.000000 0.000000 -0.296972 3.719418 -35.394167 4.771113 5.750898 -79.345911 0.921021 3.155035 -32.540199 -0.000001 -0.000000 -0.000000 0.608341 10.504315 9.263313 0.000000 0.000000 0.000000 -19.571680 14.345801 48.873033 -0.000115 86.800844 0.000090 -37.285005 6.580285 -3.840667 11.465483 24.105587 10.468459 -4.963182 -36.723762 -15.281971 3.615034 -37.001880 -26.660472 0.000001 0.000006 -0.000001 -4.243242 -1.792205 55.650162 2.182810 -3.946727 57.878326 1.337697 -3.268359 44.507674 -0.000000 0.000000 0.000000 -0.401988 -4.272627 53.100947 2.281450 -4.006778 59.300481 1.784728 -3.667355 51.887871 -0.000000 -0.000000 0.000000 1.038819 -5.285610 50.092925 2.441030 -4.097117 61.558425 1.928835 -3.775717 54.107720 -0.000000 0.000000 0.000001 3.552087 -7.249816 52.615590 1.453440 -3.381908 46.503411 1.796625 -3.676646 52.073512 -0.000000 0.000000 -0.000000 -32.768717 17.947905 30.454768 38.278542 3.212548 0.305929 -4.458458 1.327966 -15.297090 -0.462236 -0.000020 0.000012 0.000000 -0.000001 -0.000000 -29.883495 -9.713173 -19.783595 36.328393 8.780879 -5.487562 -11.130751 1.845919 20.832958 -0.433776 0.000020 0.000003 -0.000000 0.000000 0.000000 
-0.250476 90.701141 0.197189 -2.860974 -71.356311 -4.100382 12.893178 -1.638707 -0.311949 6.410503 -0.966709 -0.061815 0.000000 0.000000 0.000000 6.411055 -0.968155 -0.036963 -0.619471 1.085203 -0.184236 -0.620875 1.082450 -0.195833 -0.000002 0.000000 0.000000 0.674715 -7.610868 -7.024441 0.000000 0.000000 0.000000 -18.887920 -76.155872 -51.009338 -0.000014 -48.012521 -0.000020 -22.365661 -10.809330 31.510176 12.918555 -14.352097 3.766692 -7.464452 38.549799 4.014261 2.520109 25.042648 25.644440 -0.000001 0.000007 0.000001 -0.003123 3.517062 -25.047023 5.392007 5.833090 -85.492317 1.138932 3.472510 -36.309105 0.000003 -0.000000 0.000000 1.040746 5.695730 -26.426400 4.731317 5.743274 -78.948087 1.665161 4.091848 -44.273792 0.000002 0.000000 -0.000000 0.502456 4.733760 -31.731795 5.174294 5.811921 -83.346524 1.678788 4.105728 -44.464105 -0.000004 -0.000000 0.000000 -0.296965 3.719421 -35.394163 4.771114 5.750896 -79.345905 0.921026 3.155032 -32.540203 -0.000001 0.000000 -0.000001 0.616019 10.391327 9.147187 0.000000 0.000000 0.000000 -19.511858 14.551819 48.876608 -0.000046 86.807114 0.000098 -37.404780 6.519578 -3.899921 11.465479 24.105583 10.468458 -4.963184 -36.723765 -15.281969 3.615034 -37.001880 -26.660464 0.000001 0.000001 0.000001 -4.243242 -1.792206 55.650162 2.182811 -3.946724 57.878320 1.337696 -3.268358 44.507674 0.000000 -0.000000 0.000001 -0.401988 -4.272627 53.100951 2.281449 -4.006779 59.300488 1.784728 -3.667355 51.887871 0.000000 0.000000 -0.000001 1.038818 -5.285610 50.092928 2.441031 -4.097117 61.558425 1.928835 -3.775717 54.107720 -0.000000 -0.000000 0.000001 3.552087 -7.249816 52.615590 1.453439 -3.381908 46.503411 1.796627 -3.676646 52.073516 0.000000 0.000000 -0.000000 -32.705043 17.918434 30.368387 38.092368 3.326282 0.284365 -4.382333 1.316995 -15.302953 -0.457590 0.000013 -0.000002 -0.000000 0.000001 0.000000 -29.827443 -9.699212 -19.753284 36.086587 8.793686 -5.465625 -11.001561 1.775836 20.876506 -0.453041 0.000030 0.000003 -0.000000 -0.000001 0.000000 
